<?xml version="1.0" encoding="UTF-8" standalone="no"?>
<!DOCTYPE svg PUBLIC "-//W3C//DTD SVG 1.1//EN"
 "http://www.w3.org/Graphics/SVG/1.1/DTD/svg11.dtd">
<!-- Generated by graphviz version 2.40.1 (20161225.0304)
 -->
<!-- Title: dependencies Pages: 1 -->
<svg width="2274pt" height="284pt"
 viewBox="0.00 0.00 2274.00 284.00" xmlns="http://www.w3.org/2000/svg" xmlns:xlink="http://www.w3.org/1999/xlink">
<g id="graph0" class="graph" transform="scale(1 1) rotate(0) translate(4 280)">
<title>dependencies</title>
<polygon fill="#ffffff" stroke="transparent" points="-4,4 -4,-280 2270,-280 2270,4 -4,4"/>
<text text-anchor="start" x="1112.0091" y="-42.4" font-family="sans-serif" font-weight="bold" font-size="14.00" fill="#000000">Legend</text>
<polygon fill="#ffffb3" stroke="transparent" points="899,-10 899,-30 919,-30 919,-10 899,-10"/>
<text text-anchor="start" x="922.629" y="-15.4" font-family="sans-serif" font-size="14.00" fill="#000000"> &#160;Declarations</text>
<polygon fill="#8dd3c7" stroke="transparent" points="1012,-10 1012,-30 1032,-30 1032,-10 1012,-10"/>
<text text-anchor="start" x="1035.7251" y="-15.4" font-family="sans-serif" font-size="14.00" fill="#000000"> &#160;Module</text>
<polygon fill="#80b1d3" stroke="transparent" points="1098,-10 1098,-30 1118,-30 1118,-10 1098,-10"/>
<text text-anchor="start" x="1121.7812" y="-15.4" font-family="sans-serif" font-size="14.00" fill="#000000"> &#160;Bootstrap</text>
<polygon fill="#fdb462" stroke="transparent" points="1195,-10 1195,-30 1215,-30 1215,-10 1195,-10"/>
<text text-anchor="start" x="1218.6732" y="-15.4" font-family="sans-serif" font-size="14.00" fill="#000000"> &#160;Providers</text>
<polygon fill="#fb8072" stroke="transparent" points="1291,-10 1291,-30 1311,-30 1311,-10 1291,-10"/>
<text text-anchor="start" x="1314.7258" y="-15.4" font-family="sans-serif" font-size="14.00" fill="#000000"> &#160;Exports</text>
<g id="clust1" class="cluster">
<title>cluster_SharedModule</title>
<polygon fill="none" stroke="#000000" stroke-dasharray="1,5" points="8,-70 8,-268 2258,-268 2258,-70 8,-70"/>
</g>
<g id="clust2" class="cluster">
<title>cluster_SharedModule_declarations</title>
<polygon fill="none" stroke="#000000" points="138,-78 138,-130 2250,-130 2250,-78 138,-78"/>
</g>
<g id="clust15" class="cluster">
<title>cluster_SharedModule_imports</title>
<polygon fill="none" stroke="#000000" points="16,-78 16,-130 130,-130 130,-78 16,-78"/>
</g>
<g id="clust16" class="cluster">
<title>cluster_SharedModule_exports</title>
<polygon fill="none" stroke="#000000" points="876,-208 876,-260 1242,-260 1242,-208 876,-208"/>
</g>
<!-- EditableFormComponent -->
<g id="node1" class="node">
<title>EditableFormComponent</title>
<polygon fill="#ffffb3" stroke="#000000" points="2242.3201,-122 2083.6799,-122 2083.6799,-86 2242.3201,-86 2242.3201,-122"/>
<text text-anchor="middle" x="2163" y="-99.8" font-family="Times,serif" font-size="14.00" fill="#000000">EditableFormComponent</text>
</g>
<!-- SharedModule -->
<g id="node13" class="node">
<title>SharedModule</title>
<polygon fill="#8dd3c7" stroke="#000000" points="1110.4231,-187 1107.4231,-191 1086.4231,-191 1083.4231,-187 1011.5769,-187 1011.5769,-151 1110.4231,-151 1110.4231,-187"/>
<text text-anchor="middle" x="1061" y="-164.8" font-family="Times,serif" font-size="14.00" fill="#000000">SharedModule</text>
</g>
<!-- EditableFormComponent&#45;&gt;SharedModule -->
<g id="edge1" class="edge">
<title>EditableFormComponent&#45;&gt;SharedModule</title>
<path fill="none" stroke="#000000" d="M2163,-122.0908C2163,-145.1328 2163,-182 2163,-182 2163,-182 1120.4915,-182 1120.4915,-182"/>
<polygon fill="#000000" stroke="#000000" points="1120.4915,-178.5001 1110.4915,-182 1120.4915,-185.5001 1120.4915,-178.5001"/>
</g>
<!-- CertificatesComponent -->
<g id="node2" class="node">
<title>CertificatesComponent</title>
<polygon fill="#ffffb3" stroke="#000000" points="2065.8557,-122 1920.1443,-122 1920.1443,-86 2065.8557,-86 2065.8557,-122"/>
<text text-anchor="middle" x="1993" y="-99.8" font-family="Times,serif" font-size="14.00" fill="#000000">CertificatesComponent</text>
</g>
<!-- CertificatesComponent&#45;&gt;SharedModule -->
<g id="edge2" class="edge">
<title>CertificatesComponent&#45;&gt;SharedModule</title>
<path fill="none" stroke="#000000" d="M1993,-122.0449C1993,-143.6623 1993,-177 1993,-177 1993,-177 1120.4503,-177 1120.4503,-177"/>
<polygon fill="#000000" stroke="#000000" points="1120.4504,-173.5001 1110.4503,-177 1120.4503,-180.5001 1120.4504,-173.5001"/>
</g>
<!-- CertIssueDialogComponent -->
<g id="node3" class="node">
<title>CertIssueDialogComponent</title>
<polygon fill="#ffffb3" stroke="#000000" points="1902.3019,-122 1729.6981,-122 1729.6981,-86 1902.3019,-86 1902.3019,-122"/>
<text text-anchor="middle" x="1816" y="-99.8" font-family="Times,serif" font-size="14.00" fill="#000000">CertIssueDialogComponent</text>
</g>
<!-- CertIssueDialogComponent&#45;&gt;SharedModule -->
<g id="edge3" class="edge">
<title>CertIssueDialogComponent&#45;&gt;SharedModule</title>
<path fill="none" stroke="#000000" d="M1816,-122.2228C1816,-142.3652 1816,-172 1816,-172 1816,-172 1120.2464,-172 1120.2464,-172"/>
<polygon fill="#000000" stroke="#000000" points="1120.2465,-168.5001 1110.2464,-172 1120.2464,-175.5001 1120.2465,-168.5001"/>
</g>
<!-- CertRevokeDialogComponent -->
<g id="node4" class="node">
<title>CertRevokeDialogComponent</title>
<polygon fill="#ffffb3" stroke="#000000" points="1712.3032,-122 1525.6968,-122 1525.6968,-86 1712.3032,-86 1712.3032,-122"/>
<text text-anchor="middle" x="1619" y="-99.8" font-family="Times,serif" font-size="14.00" fill="#000000">CertRevokeDialogComponent</text>
</g>
<!-- CertRevokeDialogComponent&#45;&gt;SharedModule -->
<g id="edge4" class="edge">
<title>CertRevokeDialogComponent&#45;&gt;SharedModule</title>
<path fill="none" stroke="#000000" d="M1619,-122.2222C1619,-140.8285 1619,-167 1619,-167 1619,-167 1120.5188,-167 1120.5188,-167"/>
<polygon fill="#000000" stroke="#000000" points="1120.5188,-163.5001 1110.5188,-167 1120.5187,-170.5001 1120.5188,-163.5001"/>
</g>
<!-- XmlEditDialogComponent -->
<g id="node5" class="node">
<title>XmlEditDialogComponent</title>
<polygon fill="#ffffb3" stroke="#000000" points="1507.6568,-122 1340.3432,-122 1340.3432,-86 1507.6568,-86 1507.6568,-122"/>
<text text-anchor="middle" x="1424" y="-99.8" font-family="Times,serif" font-size="14.00" fill="#000000">XmlEditDialogComponent</text>
</g>
<!-- XmlEditDialogComponent&#45;&gt;SharedModule -->
<g id="edge5" class="edge">
<title>XmlEditDialogComponent&#45;&gt;SharedModule</title>
<path fill="none" stroke="#000000" d="M1424,-122.0336C1424,-139.0597 1424,-162 1424,-162 1424,-162 1120.3336,-162 1120.3336,-162"/>
<polygon fill="#000000" stroke="#000000" points="1120.3336,-158.5001 1110.3336,-162 1120.3335,-165.5001 1120.3336,-158.5001"/>
</g>
<!-- InputButtonListComponent -->
<g id="node6" class="node">
<title>InputButtonListComponent</title>
<polygon fill="#ffffb3" stroke="#000000" points="1322.2799,-122 1151.7201,-122 1151.7201,-86 1322.2799,-86 1322.2799,-122"/>
<text text-anchor="middle" x="1237" y="-99.8" font-family="Times,serif" font-size="14.00" fill="#000000">InputButtonListComponent</text>
</g>
<!-- InputButtonListComponent&#45;&gt;SharedModule -->
<g id="edge6" class="edge">
<title>InputButtonListComponent&#45;&gt;SharedModule</title>
<path fill="none" stroke="#000000" d="M1192.76,-122.2396C1192.76,-137.5706 1192.76,-157 1192.76,-157 1192.76,-157 1120.4374,-157 1120.4374,-157"/>
<polygon fill="#000000" stroke="#000000" points="1120.4375,-153.5001 1110.4374,-157 1120.4374,-160.5001 1120.4375,-153.5001"/>
</g>
<!-- InputImageComponent -->
<g id="node7" class="node">
<title>InputImageComponent</title>
<polygon fill="#ffffb3" stroke="#000000" points="1133.8641,-122 988.1359,-122 988.1359,-86 1133.8641,-86 1133.8641,-122"/>
<text text-anchor="middle" x="1061" y="-99.8" font-family="Times,serif" font-size="14.00" fill="#000000">InputImageComponent</text>
</g>
<!-- InputImageComponent&#45;&gt;SharedModule -->
<g id="edge7" class="edge">
<title>InputImageComponent&#45;&gt;SharedModule</title>
<path fill="none" stroke="#000000" d="M1061,-122.1061C1061,-122.1061 1061,-140.991 1061,-140.991"/>
<polygon fill="#000000" stroke="#000000" points="1057.5001,-140.9909 1061,-150.991 1064.5001,-140.991 1057.5001,-140.9909"/>
</g>
<!-- InputMcpEntityComponent -->
<g id="node8" class="node">
<title>InputMcpEntityComponent</title>
<polygon fill="#ffffb3" stroke="#000000" points="970.2674,-122 799.7326,-122 799.7326,-86 970.2674,-86 970.2674,-122"/>
<text text-anchor="middle" x="885" y="-99.8" font-family="Times,serif" font-size="14.00" fill="#000000">InputMcpEntityComponent</text>
</g>
<!-- InputMcpEntityComponent&#45;&gt;SharedModule -->
<g id="edge8" class="edge">
<title>InputMcpEntityComponent&#45;&gt;SharedModule</title>
<path fill="none" stroke="#000000" d="M927.1015,-122.2396C927.1015,-137.5706 927.1015,-157 927.1015,-157 927.1015,-157 1001.5216,-157 1001.5216,-157"/>
<polygon fill="#000000" stroke="#000000" points="1001.5216,-160.5001 1011.5216,-157 1001.5215,-153.5001 1001.5216,-160.5001"/>
</g>
<!-- InputFileListComponent -->
<g id="node9" class="node">
<title>InputFileListComponent</title>
<polygon fill="#ffffb3" stroke="#000000" points="781.441,-122 626.559,-122 626.559,-86 781.441,-86 781.441,-122"/>
<text text-anchor="middle" x="704" y="-99.8" font-family="Times,serif" font-size="14.00" fill="#000000">InputFileListComponent</text>
</g>
<!-- InputFileListComponent&#45;&gt;SharedModule -->
<g id="edge9" class="edge">
<title>InputFileListComponent&#45;&gt;SharedModule</title>
<path fill="none" stroke="#000000" d="M704,-122.0336C704,-139.0597 704,-162 704,-162 704,-162 1001.7355,-162 1001.7355,-162"/>
<polygon fill="#000000" stroke="#000000" points="1001.7355,-165.5001 1011.7355,-162 1001.7355,-158.5001 1001.7355,-165.5001"/>
</g>
<!-- InputGeometryComponent -->
<g id="node10" class="node">
<title>InputGeometryComponent</title>
<polygon fill="#ffffb3" stroke="#000000" points="608.3613,-122 441.6387,-122 441.6387,-86 608.3613,-86 608.3613,-122"/>
<text text-anchor="middle" x="525" y="-99.8" font-family="Times,serif" font-size="14.00" fill="#000000">InputGeometryComponent</text>
</g>
<!-- InputGeometryComponent&#45;&gt;SharedModule -->
<g id="edge10" class="edge">
<title>InputGeometryComponent&#45;&gt;SharedModule</title>
<path fill="none" stroke="#000000" d="M525,-122.2222C525,-140.8285 525,-167 525,-167 525,-167 1001.5352,-167 1001.5352,-167"/>
<polygon fill="#000000" stroke="#000000" points="1001.5352,-170.5001 1011.5352,-167 1001.5351,-163.5001 1001.5352,-170.5001"/>
</g>
<!-- CalendarComponent -->
<g id="node11" class="node">
<title>CalendarComponent</title>
<polygon fill="#ffffb3" stroke="#000000" points="423.8641,-122 292.1359,-122 292.1359,-86 423.8641,-86 423.8641,-122"/>
<text text-anchor="middle" x="358" y="-99.8" font-family="Times,serif" font-size="14.00" fill="#000000">CalendarComponent</text>
</g>
<!-- CalendarComponent&#45;&gt;SharedModule -->
<g id="edge11" class="edge">
<title>CalendarComponent&#45;&gt;SharedModule</title>
<path fill="none" stroke="#000000" d="M358,-122.2228C358,-142.3652 358,-172 358,-172 358,-172 1001.5664,-172 1001.5664,-172"/>
<polygon fill="#000000" stroke="#000000" points="1001.5664,-175.5001 1011.5664,-172 1001.5664,-168.5001 1001.5664,-175.5001"/>
</g>
<!-- DayCellComponent -->
<g id="node12" class="node">
<title>DayCellComponent</title>
<polygon fill="#ffffb3" stroke="#000000" points="273.986,-122 146.014,-122 146.014,-86 273.986,-86 273.986,-122"/>
<text text-anchor="middle" x="210" y="-99.8" font-family="Times,serif" font-size="14.00" fill="#000000">DayCellComponent</text>
</g>
<!-- DayCellComponent&#45;&gt;SharedModule -->
<g id="edge12" class="edge">
<title>DayCellComponent&#45;&gt;SharedModule</title>
<path fill="none" stroke="#000000" d="M210,-122.0449C210,-143.6623 210,-177 210,-177 210,-177 1001.5683,-177 1001.5683,-177"/>
<polygon fill="#000000" stroke="#000000" points="1001.5683,-180.5001 1011.5683,-177 1001.5683,-173.5001 1001.5683,-180.5001"/>
</g>
<!-- EditableFormComponent  -->
<g id="node15" class="node">
<title>EditableFormComponent </title>
<polygon fill="#fb8072" stroke="#000000" points="1233.8199,-252 1072.1801,-252 1072.1801,-216 1233.8199,-216 1233.8199,-252"/>
<text text-anchor="middle" x="1153" y="-229.8" font-family="Times,serif" font-size="14.00" fill="#000000">EditableFormComponent </text>
</g>
<!-- SharedModule&#45;&gt;EditableFormComponent  -->
<g id="edge14" class="edge">
<title>SharedModule&#45;&gt;EditableFormComponent </title>
<path fill="none" stroke="#000000" stroke-dasharray="5,2" d="M1091.1506,-187.1061C1091.1506,-187.1061 1091.1506,-205.991 1091.1506,-205.991"/>
<polygon fill="#000000" stroke="#000000" points="1087.6507,-205.9909 1091.1506,-215.991 1094.6507,-205.991 1087.6507,-205.9909"/>
</g>
<!-- InputGeometryComponent  -->
<g id="node16" class="node">
<title>InputGeometryComponent </title>
<polygon fill="#fb8072" stroke="#000000" points="1054.3616,-252 883.6384,-252 883.6384,-216 1054.3616,-216 1054.3616,-252"/>
<text text-anchor="middle" x="969" y="-229.8" font-family="Times,serif" font-size="14.00" fill="#000000">InputGeometryComponent </text>
</g>
<!-- SharedModule&#45;&gt;InputGeometryComponent  -->
<g id="edge15" class="edge">
<title>SharedModule&#45;&gt;InputGeometryComponent </title>
<path fill="none" stroke="#000000" stroke-dasharray="5,2" d="M1032.9848,-187.1061C1032.9848,-187.1061 1032.9848,-205.991 1032.9848,-205.991"/>
<polygon fill="#000000" stroke="#000000" points="1029.4848,-205.9909 1032.9848,-215.991 1036.4848,-205.991 1029.4848,-205.9909"/>
</g>
<!-- ThemeModule -->
<g id="node14" class="node">
<title>ThemeModule</title>
<polygon fill="#8dd3c7" stroke="#000000" points="122.4231,-122 119.4231,-126 98.4231,-126 95.4231,-122 23.5769,-122 23.5769,-86 122.4231,-86 122.4231,-122"/>
<text text-anchor="middle" x="73" y="-99.8" font-family="Times,serif" font-size="14.00" fill="#000000">ThemeModule</text>
</g>
<!-- ThemeModule&#45;&gt;SharedModule -->
<g id="edge13" class="edge">
<title>ThemeModule&#45;&gt;SharedModule</title>
<path fill="none" stroke="#000000" d="M73,-122.0908C73,-145.1328 73,-182 73,-182 73,-182 1001.6669,-182 1001.6669,-182"/>
<polygon fill="#000000" stroke="#000000" points="1001.6669,-185.5001 1011.6669,-182 1001.6669,-178.5001 1001.6669,-185.5001"/>
</g>
</g>
</svg>
