<?xml version="1.0" encoding="UTF-8" standalone="no"?>
<!DOCTYPE svg PUBLIC "-//W3C//DTD SVG 1.1//EN"
 "http://www.w3.org/Graphics/SVG/1.1/DTD/svg11.dtd">
<!-- Generated by graphviz version 2.40.1 (20161225.0304)
 -->
<!-- Title: dependencies Pages: 1 -->
<svg width="3158pt" height="284pt"
 viewBox="0.00 0.00 3158.00 284.00" xmlns="http://www.w3.org/2000/svg" xmlns:xlink="http://www.w3.org/1999/xlink">
<g id="graph0" class="graph" transform="scale(1 1) rotate(0) translate(4 280)">
<title>dependencies</title>
<polygon fill="#ffffff" stroke="transparent" points="-4,4 -4,-280 3154,-280 3154,4 -4,4"/>
<text text-anchor="start" x="1554.0091" y="-42.4" font-family="sans-serif" font-weight="bold" font-size="14.00" fill="#000000">Legend</text>
<polygon fill="#ffffb3" stroke="transparent" points="1341,-10 1341,-30 1361,-30 1361,-10 1341,-10"/>
<text text-anchor="start" x="1364.629" y="-15.4" font-family="sans-serif" font-size="14.00" fill="#000000"> &#160;Declarations</text>
<polygon fill="#8dd3c7" stroke="transparent" points="1454,-10 1454,-30 1474,-30 1474,-10 1454,-10"/>
<text text-anchor="start" x="1477.7251" y="-15.4" font-family="sans-serif" font-size="14.00" fill="#000000"> &#160;Module</text>
<polygon fill="#80b1d3" stroke="transparent" points="1540,-10 1540,-30 1560,-30 1560,-10 1540,-10"/>
<text text-anchor="start" x="1563.7812" y="-15.4" font-family="sans-serif" font-size="14.00" fill="#000000"> &#160;Bootstrap</text>
<polygon fill="#fdb462" stroke="transparent" points="1637,-10 1637,-30 1657,-30 1657,-10 1637,-10"/>
<text text-anchor="start" x="1660.6732" y="-15.4" font-family="sans-serif" font-size="14.00" fill="#000000"> &#160;Providers</text>
<polygon fill="#fb8072" stroke="transparent" points="1733,-10 1733,-30 1753,-30 1753,-10 1733,-10"/>
<text text-anchor="start" x="1756.7258" y="-15.4" font-family="sans-serif" font-size="14.00" fill="#000000"> &#160;Exports</text>
<g id="clust1" class="cluster">
<title>cluster_SharedModule</title>
<polygon fill="none" stroke="#000000" stroke-dasharray="1,5" points="8,-70 8,-268 3142,-268 3142,-70 8,-70"/>
</g>
<g id="clust2" class="cluster">
<title>cluster_SharedModule_declarations</title>
<polygon fill="none" stroke="#000000" points="138,-78 138,-130 3134,-130 3134,-78 138,-78"/>
</g>
<g id="clust19" class="cluster">
<title>cluster_SharedModule_imports</title>
<polygon fill="none" stroke="#000000" points="16,-78 16,-130 130,-130 130,-78 16,-78"/>
</g>
<g id="clust20" class="cluster">
<title>cluster_SharedModule_exports</title>
<polygon fill="none" stroke="#000000" points="1287,-208 1287,-260 1861,-260 1861,-208 1287,-208"/>
</g>
<!-- EditableFormComponent -->
<g id="node1" class="node">
<title>EditableFormComponent</title>
<polygon fill="#ffffb3" stroke="#000000" points="3126.3201,-122 2967.6799,-122 2967.6799,-86 3126.3201,-86 3126.3201,-122"/>
<text text-anchor="middle" x="3047" y="-99.8" font-family="Times,serif" font-size="14.00" fill="#000000">EditableFormComponent</text>
</g>
<!-- SharedModule -->
<g id="node17" class="node">
<title>SharedModule</title>
<polygon fill="#8dd3c7" stroke="#000000" points="1637.4231,-187 1634.4231,-191 1613.4231,-191 1610.4231,-187 1538.5769,-187 1538.5769,-151 1637.4231,-151 1637.4231,-187"/>
<text text-anchor="middle" x="1588" y="-164.8" font-family="Times,serif" font-size="14.00" fill="#000000">SharedModule</text>
</g>
<!-- EditableFormComponent&#45;&gt;SharedModule -->
<g id="edge1" class="edge">
<title>EditableFormComponent&#45;&gt;SharedModule</title>
<path fill="none" stroke="#000000" d="M3047,-122.0109C3047,-144.4852 3047,-180 3047,-180 3047,-180 1647.3796,-180 1647.3796,-180"/>
<polygon fill="#000000" stroke="#000000" points="1647.3796,-176.5001 1637.3796,-180 1647.3795,-183.5001 1647.3796,-176.5001"/>
</g>
<!-- CertificatesComponent -->
<g id="node2" class="node">
<title>CertificatesComponent</title>
<polygon fill="#ffffb3" stroke="#000000" points="2949.8557,-122 2804.1443,-122 2804.1443,-86 2949.8557,-86 2949.8557,-122"/>
<text text-anchor="middle" x="2877" y="-99.8" font-family="Times,serif" font-size="14.00" fill="#000000">CertificatesComponent</text>
</g>
<!-- CertificatesComponent&#45;&gt;SharedModule -->
<g id="edge2" class="edge">
<title>CertificatesComponent&#45;&gt;SharedModule</title>
<path fill="none" stroke="#000000" d="M2877,-122.0449C2877,-143.6623 2877,-177 2877,-177 2877,-177 1647.3477,-177 1647.3477,-177"/>
<polygon fill="#000000" stroke="#000000" points="1647.3477,-173.5001 1637.3477,-177 1647.3477,-180.5001 1647.3477,-173.5001"/>
</g>
<!-- CertIssueDialogComponent -->
<g id="node3" class="node">
<title>CertIssueDialogComponent</title>
<polygon fill="#ffffb3" stroke="#000000" points="2786.3019,-122 2613.6981,-122 2613.6981,-86 2786.3019,-86 2786.3019,-122"/>
<text text-anchor="middle" x="2700" y="-99.8" font-family="Times,serif" font-size="14.00" fill="#000000">CertIssueDialogComponent</text>
</g>
<!-- CertIssueDialogComponent&#45;&gt;SharedModule -->
<g id="edge3" class="edge">
<title>CertIssueDialogComponent&#45;&gt;SharedModule</title>
<path fill="none" stroke="#000000" d="M2700,-122.1289C2700,-142.5724 2700,-173 2700,-173 2700,-173 1647.2161,-173 1647.2161,-173"/>
<polygon fill="#000000" stroke="#000000" points="1647.2161,-169.5001 1637.2161,-173 1647.216,-176.5001 1647.2161,-169.5001"/>
</g>
<!-- CertRevokeDialogComponent -->
<g id="node4" class="node">
<title>CertRevokeDialogComponent</title>
<polygon fill="#ffffb3" stroke="#000000" points="2596.3032,-122 2409.6968,-122 2409.6968,-86 2596.3032,-86 2596.3032,-122"/>
<text text-anchor="middle" x="2503" y="-99.8" font-family="Times,serif" font-size="14.00" fill="#000000">CertRevokeDialogComponent</text>
</g>
<!-- CertRevokeDialogComponent&#45;&gt;SharedModule -->
<g id="edge4" class="edge">
<title>CertRevokeDialogComponent&#45;&gt;SharedModule</title>
<path fill="none" stroke="#000000" d="M2503,-122.1061C2503,-141.3391 2503,-169 2503,-169 2503,-169 1647.5188,-169 1647.5188,-169"/>
<polygon fill="#000000" stroke="#000000" points="1647.5188,-165.5001 1637.5188,-169 1647.5188,-172.5001 1647.5188,-165.5001"/>
</g>
<!-- XmlEditDialogComponent -->
<g id="node5" class="node">
<title>XmlEditDialogComponent</title>
<polygon fill="#ffffb3" stroke="#000000" points="2391.6568,-122 2224.3432,-122 2224.3432,-86 2391.6568,-86 2391.6568,-122"/>
<text text-anchor="middle" x="2308" y="-99.8" font-family="Times,serif" font-size="14.00" fill="#000000">XmlEditDialogComponent</text>
</g>
<!-- XmlEditDialogComponent&#45;&gt;SharedModule -->
<g id="edge5" class="edge">
<title>XmlEditDialogComponent&#45;&gt;SharedModule</title>
<path fill="none" stroke="#000000" d="M2308,-122.2667C2308,-140.5552 2308,-166 2308,-166 2308,-166 1647.4885,-166 1647.4885,-166"/>
<polygon fill="#000000" stroke="#000000" points="1647.4886,-162.5001 1637.4885,-166 1647.4885,-169.5001 1647.4886,-162.5001"/>
</g>
<!-- InputButtonListComponent -->
<g id="node6" class="node">
<title>InputButtonListComponent</title>
<polygon fill="#ffffb3" stroke="#000000" points="2206.2799,-122 2035.7201,-122 2035.7201,-86 2206.2799,-86 2206.2799,-122"/>
<text text-anchor="middle" x="2121" y="-99.8" font-family="Times,serif" font-size="14.00" fill="#000000">InputButtonListComponent</text>
</g>
<!-- InputButtonListComponent&#45;&gt;SharedModule -->
<g id="edge6" class="edge">
<title>InputButtonListComponent&#45;&gt;SharedModule</title>
<path fill="none" stroke="#000000" d="M2121,-122.0336C2121,-139.0597 2121,-162 2121,-162 2121,-162 1647.6647,-162 1647.6647,-162"/>
<polygon fill="#000000" stroke="#000000" points="1647.6648,-158.5001 1637.6647,-162 1647.6647,-165.5001 1647.6648,-158.5001"/>
</g>
<!-- InputImageComponent -->
<g id="node7" class="node">
<title>InputImageComponent</title>
<polygon fill="#ffffb3" stroke="#000000" points="2017.8641,-122 1872.1359,-122 1872.1359,-86 2017.8641,-86 2017.8641,-122"/>
<text text-anchor="middle" x="1945" y="-99.8" font-family="Times,serif" font-size="14.00" fill="#000000">InputImageComponent</text>
</g>
<!-- InputImageComponent&#45;&gt;SharedModule -->
<g id="edge7" class="edge">
<title>InputImageComponent&#45;&gt;SharedModule</title>
<path fill="none" stroke="#000000" d="M1945,-122.0091C1945,-138.0494 1945,-159 1945,-159 1945,-159 1647.2645,-159 1647.2645,-159"/>
<polygon fill="#000000" stroke="#000000" points="1647.2645,-155.5001 1637.2645,-159 1647.2645,-162.5001 1647.2645,-155.5001"/>
</g>
<!-- InputMcpEntityComponent -->
<g id="node8" class="node">
<title>InputMcpEntityComponent</title>
<polygon fill="#ffffb3" stroke="#000000" points="1854.2674,-122 1683.7326,-122 1683.7326,-86 1854.2674,-86 1854.2674,-122"/>
<text text-anchor="middle" x="1769" y="-99.8" font-family="Times,serif" font-size="14.00" fill="#000000">InputMcpEntityComponent</text>
</g>
<!-- InputMcpEntityComponent&#45;&gt;SharedModule -->
<g id="edge8" class="edge">
<title>InputMcpEntityComponent&#45;&gt;SharedModule</title>
<path fill="none" stroke="#000000" d="M1687.3533,-122.1243C1687.3533,-136.7832 1687.3533,-155 1687.3533,-155 1687.3533,-155 1647.3856,-155 1647.3856,-155"/>
<polygon fill="#000000" stroke="#000000" points="1647.3856,-151.5001 1637.3856,-155 1647.3855,-158.5001 1647.3856,-151.5001"/>
</g>
<!-- InputFileListComponent -->
<g id="node9" class="node">
<title>InputFileListComponent</title>
<polygon fill="#ffffb3" stroke="#000000" points="1665.441,-122 1510.559,-122 1510.559,-86 1665.441,-86 1665.441,-122"/>
<text text-anchor="middle" x="1588" y="-99.8" font-family="Times,serif" font-size="14.00" fill="#000000">InputFileListComponent</text>
</g>
<!-- InputFileListComponent&#45;&gt;SharedModule -->
<g id="edge9" class="edge">
<title>InputFileListComponent&#45;&gt;SharedModule</title>
<path fill="none" stroke="#000000" d="M1588,-122.1061C1588,-122.1061 1588,-140.991 1588,-140.991"/>
<polygon fill="#000000" stroke="#000000" points="1584.5001,-140.9909 1588,-150.991 1591.5001,-140.991 1584.5001,-140.9909"/>
</g>
<!-- InputGeometryComponent -->
<g id="node10" class="node">
<title>InputGeometryComponent</title>
<polygon fill="#ffffb3" stroke="#000000" points="1492.3613,-122 1325.6387,-122 1325.6387,-86 1492.3613,-86 1492.3613,-122"/>
<text text-anchor="middle" x="1409" y="-99.8" font-family="Times,serif" font-size="14.00" fill="#000000">InputGeometryComponent</text>
</g>
<!-- InputGeometryComponent&#45;&gt;SharedModule -->
<g id="edge10" class="edge">
<title>InputGeometryComponent&#45;&gt;SharedModule</title>
<path fill="none" stroke="#000000" d="M1488.8558,-122.1243C1488.8558,-136.7832 1488.8558,-155 1488.8558,-155 1488.8558,-155 1528.7183,-155 1528.7183,-155"/>
<polygon fill="#000000" stroke="#000000" points="1528.7184,-158.5001 1538.7183,-155 1528.7183,-151.5001 1528.7184,-158.5001"/>
</g>
<!-- CalendarComponent -->
<g id="node11" class="node">
<title>CalendarComponent</title>
<polygon fill="#ffffb3" stroke="#000000" points="1307.8641,-122 1176.1359,-122 1176.1359,-86 1307.8641,-86 1307.8641,-122"/>
<text text-anchor="middle" x="1242" y="-99.8" font-family="Times,serif" font-size="14.00" fill="#000000">CalendarComponent</text>
</g>
<!-- CalendarComponent&#45;&gt;SharedModule -->
<g id="edge11" class="edge">
<title>CalendarComponent&#45;&gt;SharedModule</title>
<path fill="none" stroke="#000000" d="M1301.3256,-122.0091C1301.3256,-138.0494 1301.3256,-159 1301.3256,-159 1301.3256,-159 1528.7189,-159 1528.7189,-159"/>
<polygon fill="#000000" stroke="#000000" points="1528.7189,-162.5001 1538.7189,-159 1528.7189,-155.5001 1528.7189,-162.5001"/>
</g>
<!-- DayCellComponent -->
<g id="node12" class="node">
<title>DayCellComponent</title>
<polygon fill="#ffffb3" stroke="#000000" points="1157.986,-122 1030.014,-122 1030.014,-86 1157.986,-86 1157.986,-122"/>
<text text-anchor="middle" x="1094" y="-99.8" font-family="Times,serif" font-size="14.00" fill="#000000">DayCellComponent</text>
</g>
<!-- DayCellComponent&#45;&gt;SharedModule -->
<g id="edge12" class="edge">
<title>DayCellComponent&#45;&gt;SharedModule</title>
<path fill="none" stroke="#000000" d="M1094,-122.0336C1094,-139.0597 1094,-162 1094,-162 1094,-162 1528.3716,-162 1528.3716,-162"/>
<polygon fill="#000000" stroke="#000000" points="1528.3716,-165.5001 1538.3716,-162 1528.3715,-158.5001 1528.3716,-165.5001"/>
</g>
<!-- LuceneQueryInputComponent -->
<g id="node13" class="node">
<title>LuceneQueryInputComponent</title>
<polygon fill="#ffffb3" stroke="#000000" points="1011.5618,-122 824.4382,-122 824.4382,-86 1011.5618,-86 1011.5618,-122"/>
<text text-anchor="middle" x="918" y="-99.8" font-family="Times,serif" font-size="14.00" fill="#000000">LuceneQueryInputComponent</text>
</g>
<!-- LuceneQueryInputComponent&#45;&gt;SharedModule -->
<g id="edge13" class="edge">
<title>LuceneQueryInputComponent&#45;&gt;SharedModule</title>
<path fill="none" stroke="#000000" d="M918,-122.2667C918,-140.5552 918,-166 918,-166 918,-166 1528.7333,-166 1528.7333,-166"/>
<polygon fill="#000000" stroke="#000000" points="1528.7333,-169.5001 1538.7333,-166 1528.7333,-162.5001 1528.7333,-169.5001"/>
</g>
<!-- LuceneSingleQueryInputComponent -->
<g id="node14" class="node">
<title>LuceneSingleQueryInputComponent</title>
<polygon fill="#ffffb3" stroke="#000000" points="806.3403,-122 583.6597,-122 583.6597,-86 806.3403,-86 806.3403,-122"/>
<text text-anchor="middle" x="695" y="-99.8" font-family="Times,serif" font-size="14.00" fill="#000000">LuceneSingleQueryInputComponent</text>
</g>
<!-- LuceneSingleQueryInputComponent&#45;&gt;SharedModule -->
<g id="edge14" class="edge">
<title>LuceneSingleQueryInputComponent&#45;&gt;SharedModule</title>
<path fill="none" stroke="#000000" d="M695,-122.1061C695,-141.3391 695,-169 695,-169 695,-169 1528.7164,-169 1528.7164,-169"/>
<polygon fill="#000000" stroke="#000000" points="1528.7165,-172.5001 1538.7164,-169 1528.7164,-165.5001 1528.7165,-172.5001"/>
</g>
<!-- LuceneComponentInputComponent -->
<g id="node15" class="node">
<title>LuceneComponentInputComponent</title>
<polygon fill="#ffffb3" stroke="#000000" points="565.9128,-122 348.0872,-122 348.0872,-86 565.9128,-86 565.9128,-122"/>
<text text-anchor="middle" x="457" y="-99.8" font-family="Times,serif" font-size="14.00" fill="#000000">LuceneComponentInputComponent</text>
</g>
<!-- LuceneComponentInputComponent&#45;&gt;SharedModule -->
<g id="edge15" class="edge">
<title>LuceneComponentInputComponent&#45;&gt;SharedModule</title>
<path fill="none" stroke="#000000" d="M457,-122.1289C457,-142.5724 457,-173 457,-173 457,-173 1528.6751,-173 1528.6751,-173"/>
<polygon fill="#000000" stroke="#000000" points="1528.6751,-176.5001 1538.6751,-173 1528.6751,-169.5001 1528.6751,-176.5001"/>
</g>
<!-- LuceneLogicInputComponent -->
<g id="node16" class="node">
<title>LuceneLogicInputComponent</title>
<polygon fill="#ffffb3" stroke="#000000" points="330.238,-122 145.762,-122 145.762,-86 330.238,-86 330.238,-122"/>
<text text-anchor="middle" x="238" y="-99.8" font-family="Times,serif" font-size="14.00" fill="#000000">LuceneLogicInputComponent</text>
</g>
<!-- LuceneLogicInputComponent&#45;&gt;SharedModule -->
<g id="edge16" class="edge">
<title>LuceneLogicInputComponent&#45;&gt;SharedModule</title>
<path fill="none" stroke="#000000" d="M238,-122.0449C238,-143.6623 238,-177 238,-177 238,-177 1528.7542,-177 1528.7542,-177"/>
<polygon fill="#000000" stroke="#000000" points="1528.7543,-180.5001 1538.7542,-177 1528.7542,-173.5001 1528.7543,-180.5001"/>
</g>
<!-- EditableFormComponent  -->
<g id="node19" class="node">
<title>EditableFormComponent </title>
<polygon fill="#fb8072" stroke="#000000" points="1852.8199,-252 1691.1801,-252 1691.1801,-216 1852.8199,-216 1852.8199,-252"/>
<text text-anchor="middle" x="1772" y="-229.8" font-family="Times,serif" font-size="14.00" fill="#000000">EditableFormComponent </text>
</g>
<!-- SharedModule&#45;&gt;EditableFormComponent  -->
<g id="edge18" class="edge">
<title>SharedModule&#45;&gt;EditableFormComponent </title>
<path fill="none" stroke="#000000" stroke-dasharray="5,2" d="M1637.3086,-184C1691.8116,-184 1772,-184 1772,-184 1772,-184 1772,-205.9489 1772,-205.9489"/>
<polygon fill="#000000" stroke="#000000" points="1768.5001,-205.9488 1772,-215.9489 1775.5001,-205.9489 1768.5001,-205.9488"/>
</g>
<!-- InputGeometryComponent  -->
<g id="node20" class="node">
<title>InputGeometryComponent </title>
<polygon fill="#fb8072" stroke="#000000" points="1673.3616,-252 1502.6384,-252 1502.6384,-216 1673.3616,-216 1673.3616,-252"/>
<text text-anchor="middle" x="1588" y="-229.8" font-family="Times,serif" font-size="14.00" fill="#000000">InputGeometryComponent </text>
</g>
<!-- SharedModule&#45;&gt;InputGeometryComponent  -->
<g id="edge19" class="edge">
<title>SharedModule&#45;&gt;InputGeometryComponent </title>
<path fill="none" stroke="#000000" stroke-dasharray="5,2" d="M1588,-187.1061C1588,-187.1061 1588,-205.991 1588,-205.991"/>
<polygon fill="#000000" stroke="#000000" points="1584.5001,-205.9909 1588,-215.991 1591.5001,-205.991 1584.5001,-205.9909"/>
</g>
<!-- LuceneQueryInputComponent  -->
<g id="node21" class="node">
<title>LuceneQueryInputComponent </title>
<polygon fill="#fb8072" stroke="#000000" points="1485.0623,-252 1294.9377,-252 1294.9377,-216 1485.0623,-216 1485.0623,-252"/>
<text text-anchor="middle" x="1390" y="-229.8" font-family="Times,serif" font-size="14.00" fill="#000000">LuceneQueryInputComponent </text>
</g>
<!-- SharedModule&#45;&gt;LuceneQueryInputComponent  -->
<g id="edge20" class="edge">
<title>SharedModule&#45;&gt;LuceneQueryInputComponent </title>
<path fill="none" stroke="#000000" stroke-dasharray="5,2" d="M1538.5926,-184C1484.5223,-184 1405.4252,-184 1405.4252,-184 1405.4252,-184 1405.4252,-205.9489 1405.4252,-205.9489"/>
<polygon fill="#000000" stroke="#000000" points="1401.9252,-205.9488 1405.4252,-215.9489 1408.9252,-205.9489 1401.9252,-205.9488"/>
</g>
<!-- ThemeModule -->
<g id="node18" class="node">
<title>ThemeModule</title>
<polygon fill="#8dd3c7" stroke="#000000" points="122.4231,-122 119.4231,-126 98.4231,-126 95.4231,-122 23.5769,-122 23.5769,-86 122.4231,-86 122.4231,-122"/>
<text text-anchor="middle" x="73" y="-99.8" font-family="Times,serif" font-size="14.00" fill="#000000">ThemeModule</text>
</g>
<!-- ThemeModule&#45;&gt;SharedModule -->
<g id="edge17" class="edge">
<title>ThemeModule&#45;&gt;SharedModule</title>
<path fill="none" stroke="#000000" d="M73,-122.0109C73,-144.4852 73,-180 73,-180 73,-180 1528.4546,-180 1528.4546,-180"/>
<polygon fill="#000000" stroke="#000000" points="1528.4546,-183.5001 1538.4546,-180 1528.4545,-176.5001 1528.4546,-183.5001"/>
</g>
</g>
</svg>
