<?xml version="1.0" encoding="UTF-8" standalone="no"?>
<!DOCTYPE svg PUBLIC "-//W3C//DTD SVG 1.1//EN"
 "http://www.w3.org/Graphics/SVG/1.1/DTD/svg11.dtd">
<!-- Generated by graphviz version 2.40.1 (20161225.0304)
 -->
<!-- Title: dependencies Pages: 1 -->
<svg width="1278pt" height="211pt"
 viewBox="0.00 0.00 1278.00 211.00" xmlns="http://www.w3.org/2000/svg" xmlns:xlink="http://www.w3.org/1999/xlink">
<g id="graph0" class="graph" transform="scale(1 1) rotate(0) translate(4 207)">
<title>dependencies</title>
<polygon fill="#ffffff" stroke="transparent" points="-4,4 -4,-207 1274,-207 1274,4 -4,4"/>
<text text-anchor="start" x="614.0091" y="-42.4" font-family="sans-serif" font-weight="bold" font-size="14.00" fill="#000000">Legend</text>
<polygon fill="#ffffb3" stroke="transparent" points="401,-10 401,-30 421,-30 421,-10 401,-10"/>
<text text-anchor="start" x="424.629" y="-15.4" font-family="sans-serif" font-size="14.00" fill="#000000"> &#160;Declarations</text>
<polygon fill="#8dd3c7" stroke="transparent" points="514,-10 514,-30 534,-30 534,-10 514,-10"/>
<text text-anchor="start" x="537.7251" y="-15.4" font-family="sans-serif" font-size="14.00" fill="#000000"> &#160;Module</text>
<polygon fill="#80b1d3" stroke="transparent" points="600,-10 600,-30 620,-30 620,-10 600,-10"/>
<text text-anchor="start" x="623.7812" y="-15.4" font-family="sans-serif" font-size="14.00" fill="#000000"> &#160;Bootstrap</text>
<polygon fill="#fdb462" stroke="transparent" points="697,-10 697,-30 717,-30 717,-10 697,-10"/>
<text text-anchor="start" x="720.6732" y="-15.4" font-family="sans-serif" font-size="14.00" fill="#000000"> &#160;Providers</text>
<polygon fill="#fb8072" stroke="transparent" points="793,-10 793,-30 813,-30 813,-10 793,-10"/>
<text text-anchor="start" x="816.7258" y="-15.4" font-family="sans-serif" font-size="14.00" fill="#000000"> &#160;Exports</text>
<g id="clust1" class="cluster">
<title>cluster_PagesModule</title>
<polygon fill="none" stroke="#000000" stroke-dasharray="1,5" points="8,-70 8,-195 1262,-195 1262,-70 8,-70"/>
</g>
<g id="clust2" class="cluster">
<title>cluster_PagesModule_declarations</title>
<polygon fill="none" stroke="#000000" points="412,-78 412,-130 1254,-130 1254,-78 412,-78"/>
</g>
<g id="clust9" class="cluster">
<title>cluster_PagesModule_imports</title>
<polygon fill="none" stroke="#000000" points="16,-78 16,-130 404,-130 404,-78 16,-78"/>
</g>
<!-- PagesComponent -->
<g id="node1" class="node">
<title>PagesComponent</title>
<polygon fill="#ffffb3" stroke="#000000" points="1245.9888,-122 1132.0112,-122 1132.0112,-86 1245.9888,-86 1245.9888,-122"/>
<text text-anchor="middle" x="1189" y="-99.8" font-family="Times,serif" font-size="14.00" fill="#000000">PagesComponent</text>
</g>
<!-- PagesModule -->
<g id="node7" class="node">
<title>PagesModule</title>
<polygon fill="#8dd3c7" stroke="#000000" points="654.2064,-187 651.2064,-191 630.2064,-191 627.2064,-187 561.7936,-187 561.7936,-151 654.2064,-151 654.2064,-187"/>
<text text-anchor="middle" x="608" y="-164.8" font-family="Times,serif" font-size="14.00" fill="#000000">PagesModule</text>
</g>
<!-- PagesComponent&#45;&gt;PagesModule -->
<g id="edge1" class="edge">
<title>PagesComponent&#45;&gt;PagesModule</title>
<path fill="none" stroke="#000000" d="M1189,-122.0109C1189,-144.4852 1189,-180 1189,-180 1189,-180 664.5635,-180 664.5635,-180"/>
<polygon fill="#000000" stroke="#000000" points="664.5636,-176.5001 654.5635,-180 664.5635,-183.5001 664.5636,-176.5001"/>
</g>
<!-- ListViewComponent -->
<g id="node2" class="node">
<title>ListViewComponent</title>
<polygon fill="#ffffb3" stroke="#000000" points="1113.9299,-122 980.0701,-122 980.0701,-86 1113.9299,-86 1113.9299,-122"/>
<text text-anchor="middle" x="1047" y="-99.8" font-family="Times,serif" font-size="14.00" fill="#000000">ListViewComponent</text>
</g>
<!-- ListViewComponent&#45;&gt;PagesModule -->
<g id="edge2" class="edge">
<title>ListViewComponent&#45;&gt;PagesModule</title>
<path fill="none" stroke="#000000" d="M1047,-122.1289C1047,-142.5724 1047,-173 1047,-173 1047,-173 664.151,-173 664.151,-173"/>
<polygon fill="#000000" stroke="#000000" points="664.151,-169.5001 654.151,-173 664.1509,-176.5001 664.151,-169.5001"/>
</g>
<!-- IrGuideComponent -->
<g id="node3" class="node">
<title>IrGuideComponent</title>
<polygon fill="#ffffb3" stroke="#000000" points="962.3655,-122 837.6345,-122 837.6345,-86 962.3655,-86 962.3655,-122"/>
<text text-anchor="middle" x="900" y="-99.8" font-family="Times,serif" font-size="14.00" fill="#000000">IrGuideComponent</text>
</g>
<!-- IrGuideComponent&#45;&gt;PagesModule -->
<g id="edge3" class="edge">
<title>IrGuideComponent&#45;&gt;PagesModule</title>
<path fill="none" stroke="#000000" d="M900,-122.2667C900,-140.5552 900,-166 900,-166 900,-166 664.2683,-166 664.2683,-166"/>
<polygon fill="#000000" stroke="#000000" points="664.2683,-162.5001 654.2683,-166 664.2682,-169.5001 664.2683,-162.5001"/>
</g>
<!-- SrGuideComponent -->
<g id="node4" class="node">
<title>SrGuideComponent</title>
<polygon fill="#ffffb3" stroke="#000000" points="819.9874,-122 692.0126,-122 692.0126,-86 819.9874,-86 819.9874,-122"/>
<text text-anchor="middle" x="756" y="-99.8" font-family="Times,serif" font-size="14.00" fill="#000000">SrGuideComponent</text>
</g>
<!-- SrGuideComponent&#45;&gt;PagesModule -->
<g id="edge4" class="edge">
<title>SrGuideComponent&#45;&gt;PagesModule</title>
<path fill="none" stroke="#000000" d="M756,-122.0091C756,-138.0494 756,-159 756,-159 756,-159 664.4221,-159 664.4221,-159"/>
<polygon fill="#000000" stroke="#000000" points="664.4221,-155.5001 654.4221,-159 664.422,-162.5001 664.4221,-155.5001"/>
</g>
<!-- SrSearchComponent -->
<g id="node5" class="node">
<title>SrSearchComponent</title>
<polygon fill="#ffffb3" stroke="#000000" points="673.8627,-122 542.1373,-122 542.1373,-86 673.8627,-86 673.8627,-122"/>
<text text-anchor="middle" x="608" y="-99.8" font-family="Times,serif" font-size="14.00" fill="#000000">SrSearchComponent</text>
</g>
<!-- SrSearchComponent&#45;&gt;PagesModule -->
<g id="edge5" class="edge">
<title>SrSearchComponent&#45;&gt;PagesModule</title>
<path fill="none" stroke="#000000" d="M608,-122.1061C608,-122.1061 608,-140.991 608,-140.991"/>
<polygon fill="#000000" stroke="#000000" points="604.5001,-140.9909 608,-150.991 611.5001,-140.991 604.5001,-140.9909"/>
</g>
<!-- InfoComponent -->
<g id="node6" class="node">
<title>InfoComponent</title>
<polygon fill="#ffffb3" stroke="#000000" points="524.1542,-122 419.8458,-122 419.8458,-86 524.1542,-86 524.1542,-122"/>
<text text-anchor="middle" x="472" y="-99.8" font-family="Times,serif" font-size="14.00" fill="#000000">InfoComponent</text>
</g>
<!-- InfoComponent&#45;&gt;PagesModule -->
<g id="edge6" class="edge">
<title>InfoComponent&#45;&gt;PagesModule</title>
<path fill="none" stroke="#000000" d="M472,-122.0091C472,-138.0494 472,-159 472,-159 472,-159 551.5769,-159 551.5769,-159"/>
<polygon fill="#000000" stroke="#000000" points="551.5769,-162.5001 561.5769,-159 551.5769,-155.5001 551.5769,-162.5001"/>
</g>
<!-- ThemeModule -->
<g id="node8" class="node">
<title>ThemeModule</title>
<polygon fill="#8dd3c7" stroke="#000000" points="396.4231,-122 393.4231,-126 372.4231,-126 369.4231,-122 297.5769,-122 297.5769,-86 396.4231,-86 396.4231,-122"/>
<text text-anchor="middle" x="347" y="-99.8" font-family="Times,serif" font-size="14.00" fill="#000000">ThemeModule</text>
</g>
<!-- ThemeModule&#45;&gt;PagesModule -->
<g id="edge7" class="edge">
<title>ThemeModule&#45;&gt;PagesModule</title>
<path fill="none" stroke="#000000" d="M347,-122.2667C347,-140.5552 347,-166 347,-166 347,-166 551.6392,-166 551.6392,-166"/>
<polygon fill="#000000" stroke="#000000" points="551.6392,-169.5001 561.6392,-166 551.6391,-162.5001 551.6392,-169.5001"/>
</g>
<!-- MiscellaneousModule -->
<g id="node9" class="node">
<title>MiscellaneousModule</title>
<polygon fill="#8dd3c7" stroke="#000000" points="280.4144,-122 277.4144,-126 256.4144,-126 253.4144,-122 139.5856,-122 139.5856,-86 280.4144,-86 280.4144,-122"/>
<text text-anchor="middle" x="210" y="-99.8" font-family="Times,serif" font-size="14.00" fill="#000000">MiscellaneousModule</text>
</g>
<!-- MiscellaneousModule&#45;&gt;PagesModule -->
<g id="edge8" class="edge">
<title>MiscellaneousModule&#45;&gt;PagesModule</title>
<path fill="none" stroke="#000000" d="M210,-122.1289C210,-142.5724 210,-173 210,-173 210,-173 551.5654,-173 551.5654,-173"/>
<polygon fill="#000000" stroke="#000000" points="551.5654,-176.5001 561.5654,-173 551.5654,-169.5001 551.5654,-176.5001"/>
</g>
<!-- SharedModule -->
<g id="node10" class="node">
<title>SharedModule</title>
<polygon fill="#8dd3c7" stroke="#000000" points="122.4231,-122 119.4231,-126 98.4231,-126 95.4231,-122 23.5769,-122 23.5769,-86 122.4231,-86 122.4231,-122"/>
<text text-anchor="middle" x="73" y="-99.8" font-family="Times,serif" font-size="14.00" fill="#000000">SharedModule</text>
</g>
<!-- SharedModule&#45;&gt;PagesModule -->
<g id="edge9" class="edge">
<title>SharedModule&#45;&gt;PagesModule</title>
<path fill="none" stroke="#000000" d="M73,-122.0109C73,-144.4852 73,-180 73,-180 73,-180 551.4582,-180 551.4582,-180"/>
<polygon fill="#000000" stroke="#000000" points="551.4582,-183.5001 561.4582,-180 551.4581,-176.5001 551.4582,-183.5001"/>
</g>
</g>
</svg>
