<?xml version="1.0" encoding="UTF-8" standalone="no"?>
<!DOCTYPE svg PUBLIC "-//W3C//DTD SVG 1.1//EN"
 "http://www.w3.org/Graphics/SVG/1.1/DTD/svg11.dtd">
<!-- Generated by graphviz version 2.40.1 (20161225.0304)
 -->
<!-- Title: dependencies Pages: 1 -->
<svg width="1415pt" height="211pt"
 viewBox="0.00 0.00 1415.00 211.00" xmlns="http://www.w3.org/2000/svg" xmlns:xlink="http://www.w3.org/1999/xlink">
<g id="graph0" class="graph" transform="scale(1 1) rotate(0) translate(4 207)">
<title>dependencies</title>
<polygon fill="#ffffff" stroke="transparent" points="-4,4 -4,-207 1411,-207 1411,4 -4,4"/>
<text text-anchor="start" x="682.5091" y="-42.4" font-family="sans-serif" font-weight="bold" font-size="14.00" fill="#000000">Legend</text>
<polygon fill="#ffffb3" stroke="transparent" points="469.5,-10 469.5,-30 489.5,-30 489.5,-10 469.5,-10"/>
<text text-anchor="start" x="493.129" y="-15.4" font-family="sans-serif" font-size="14.00" fill="#000000"> &#160;Declarations</text>
<polygon fill="#8dd3c7" stroke="transparent" points="582.5,-10 582.5,-30 602.5,-30 602.5,-10 582.5,-10"/>
<text text-anchor="start" x="606.2251" y="-15.4" font-family="sans-serif" font-size="14.00" fill="#000000"> &#160;Module</text>
<polygon fill="#80b1d3" stroke="transparent" points="668.5,-10 668.5,-30 688.5,-30 688.5,-10 668.5,-10"/>
<text text-anchor="start" x="692.2812" y="-15.4" font-family="sans-serif" font-size="14.00" fill="#000000"> &#160;Bootstrap</text>
<polygon fill="#fdb462" stroke="transparent" points="765.5,-10 765.5,-30 785.5,-30 785.5,-10 765.5,-10"/>
<text text-anchor="start" x="789.1732" y="-15.4" font-family="sans-serif" font-size="14.00" fill="#000000"> &#160;Providers</text>
<polygon fill="#fb8072" stroke="transparent" points="861.5,-10 861.5,-30 881.5,-30 881.5,-10 861.5,-10"/>
<text text-anchor="start" x="885.2258" y="-15.4" font-family="sans-serif" font-size="14.00" fill="#000000"> &#160;Exports</text>
<g id="clust1" class="cluster">
<title>cluster_PagesModule</title>
<polygon fill="none" stroke="#000000" stroke-dasharray="1,5" points="8,-70 8,-195 1399,-195 1399,-70 8,-70"/>
</g>
<g id="clust2" class="cluster">
<title>cluster_PagesModule_declarations</title>
<polygon fill="none" stroke="#000000" points="412,-78 412,-130 1391,-130 1391,-78 412,-78"/>
</g>
<g id="clust10" class="cluster">
<title>cluster_PagesModule_imports</title>
<polygon fill="none" stroke="#000000" points="16,-78 16,-130 404,-130 404,-78 16,-78"/>
</g>
<!-- PagesComponent -->
<g id="node1" class="node">
<title>PagesComponent</title>
<polygon fill="#ffffb3" stroke="#000000" points="1382.9888,-122 1269.0112,-122 1269.0112,-86 1382.9888,-86 1382.9888,-122"/>
<text text-anchor="middle" x="1326" y="-99.8" font-family="Times,serif" font-size="14.00" fill="#000000">PagesComponent</text>
</g>
<!-- PagesModule -->
<g id="node8" class="node">
<title>PagesModule</title>
<polygon fill="#8dd3c7" stroke="#000000" points="728.2064,-187 725.2064,-191 704.2064,-191 701.2064,-187 635.7936,-187 635.7936,-151 728.2064,-151 728.2064,-187"/>
<text text-anchor="middle" x="682" y="-164.8" font-family="Times,serif" font-size="14.00" fill="#000000">PagesModule</text>
</g>
<!-- PagesComponent&#45;&gt;PagesModule -->
<g id="edge1" class="edge">
<title>PagesComponent&#45;&gt;PagesModule</title>
<path fill="none" stroke="#000000" d="M1326,-122.0109C1326,-144.4852 1326,-180 1326,-180 1326,-180 738.3149,-180 738.3149,-180"/>
<polygon fill="#000000" stroke="#000000" points="738.3149,-176.5001 728.3149,-180 738.3149,-183.5001 738.3149,-176.5001"/>
</g>
<!-- ListViewComponent -->
<g id="node2" class="node">
<title>ListViewComponent</title>
<polygon fill="#ffffb3" stroke="#000000" points="1250.9299,-122 1117.0701,-122 1117.0701,-86 1250.9299,-86 1250.9299,-122"/>
<text text-anchor="middle" x="1184" y="-99.8" font-family="Times,serif" font-size="14.00" fill="#000000">ListViewComponent</text>
</g>
<!-- ListViewComponent&#45;&gt;PagesModule -->
<g id="edge2" class="edge">
<title>ListViewComponent&#45;&gt;PagesModule</title>
<path fill="none" stroke="#000000" d="M1184,-122.1289C1184,-142.5724 1184,-173 1184,-173 1184,-173 738.3271,-173 738.3271,-173"/>
<polygon fill="#000000" stroke="#000000" points="738.3272,-169.5001 728.3271,-173 738.3271,-176.5001 738.3272,-169.5001"/>
</g>
<!-- SearchComponent -->
<g id="node3" class="node">
<title>SearchComponent</title>
<polygon fill="#ffffb3" stroke="#000000" points="1099.9201,-122 980.0799,-122 980.0799,-86 1099.9201,-86 1099.9201,-122"/>
<text text-anchor="middle" x="1040" y="-99.8" font-family="Times,serif" font-size="14.00" fill="#000000">SearchComponent</text>
</g>
<!-- SearchComponent&#45;&gt;PagesModule -->
<g id="edge3" class="edge">
<title>SearchComponent&#45;&gt;PagesModule</title>
<path fill="none" stroke="#000000" d="M1040,-122.2667C1040,-140.5552 1040,-166 1040,-166 1040,-166 738.4352,-166 738.4352,-166"/>
<polygon fill="#000000" stroke="#000000" points="738.4353,-162.5001 728.4352,-166 738.4352,-169.5001 738.4353,-162.5001"/>
</g>
<!-- IrGuideComponent -->
<g id="node4" class="node">
<title>IrGuideComponent</title>
<polygon fill="#ffffb3" stroke="#000000" points="962.3655,-122 837.6345,-122 837.6345,-86 962.3655,-86 962.3655,-122"/>
<text text-anchor="middle" x="900" y="-99.8" font-family="Times,serif" font-size="14.00" fill="#000000">IrGuideComponent</text>
</g>
<!-- IrGuideComponent&#45;&gt;PagesModule -->
<g id="edge4" class="edge">
<title>IrGuideComponent&#45;&gt;PagesModule</title>
<path fill="none" stroke="#000000" d="M900,-122.0091C900,-138.0494 900,-159 900,-159 900,-159 738.2322,-159 738.2322,-159"/>
<polygon fill="#000000" stroke="#000000" points="738.2322,-155.5001 728.2322,-159 738.2322,-162.5001 738.2322,-155.5001"/>
</g>
<!-- SrGuideComponent -->
<g id="node5" class="node">
<title>SrGuideComponent</title>
<polygon fill="#ffffb3" stroke="#000000" points="819.9874,-122 692.0126,-122 692.0126,-86 819.9874,-86 819.9874,-122"/>
<text text-anchor="middle" x="756" y="-99.8" font-family="Times,serif" font-size="14.00" fill="#000000">SrGuideComponent</text>
</g>
<!-- SrGuideComponent&#45;&gt;PagesModule -->
<g id="edge5" class="edge">
<title>SrGuideComponent&#45;&gt;PagesModule</title>
<path fill="none" stroke="#000000" d="M710.0547,-122.1061C710.0547,-122.1061 710.0547,-140.991 710.0547,-140.991"/>
<polygon fill="#000000" stroke="#000000" points="706.5548,-140.9909 710.0547,-150.991 713.5548,-140.991 706.5548,-140.9909"/>
</g>
<!-- SrSearchComponent -->
<g id="node6" class="node">
<title>SrSearchComponent</title>
<polygon fill="#ffffb3" stroke="#000000" points="673.8627,-122 542.1373,-122 542.1373,-86 673.8627,-86 673.8627,-122"/>
<text text-anchor="middle" x="608" y="-99.8" font-family="Times,serif" font-size="14.00" fill="#000000">SrSearchComponent</text>
</g>
<!-- SrSearchComponent&#45;&gt;PagesModule -->
<g id="edge6" class="edge">
<title>SrSearchComponent&#45;&gt;PagesModule</title>
<path fill="none" stroke="#000000" d="M654.9141,-122.1061C654.9141,-122.1061 654.9141,-140.991 654.9141,-140.991"/>
<polygon fill="#000000" stroke="#000000" points="651.4142,-140.9909 654.9141,-150.991 658.4142,-140.991 651.4142,-140.9909"/>
</g>
<!-- InfoComponent -->
<g id="node7" class="node">
<title>InfoComponent</title>
<polygon fill="#ffffb3" stroke="#000000" points="524.1542,-122 419.8458,-122 419.8458,-86 524.1542,-86 524.1542,-122"/>
<text text-anchor="middle" x="472" y="-99.8" font-family="Times,serif" font-size="14.00" fill="#000000">InfoComponent</text>
</g>
<!-- InfoComponent&#45;&gt;PagesModule -->
<g id="edge7" class="edge">
<title>InfoComponent&#45;&gt;PagesModule</title>
<path fill="none" stroke="#000000" d="M472,-122.0091C472,-138.0494 472,-159 472,-159 472,-159 625.6546,-159 625.6546,-159"/>
<polygon fill="#000000" stroke="#000000" points="625.6547,-162.5001 635.6546,-159 625.6546,-155.5001 625.6547,-162.5001"/>
</g>
<!-- ThemeModule -->
<g id="node9" class="node">
<title>ThemeModule</title>
<polygon fill="#8dd3c7" stroke="#000000" points="396.4231,-122 393.4231,-126 372.4231,-126 369.4231,-122 297.5769,-122 297.5769,-86 396.4231,-86 396.4231,-122"/>
<text text-anchor="middle" x="347" y="-99.8" font-family="Times,serif" font-size="14.00" fill="#000000">ThemeModule</text>
</g>
<!-- ThemeModule&#45;&gt;PagesModule -->
<g id="edge8" class="edge">
<title>ThemeModule&#45;&gt;PagesModule</title>
<path fill="none" stroke="#000000" d="M347,-122.2667C347,-140.5552 347,-166 347,-166 347,-166 625.7714,-166 625.7714,-166"/>
<polygon fill="#000000" stroke="#000000" points="625.7714,-169.5001 635.7714,-166 625.7714,-162.5001 625.7714,-169.5001"/>
</g>
<!-- MiscellaneousModule -->
<g id="node10" class="node">
<title>MiscellaneousModule</title>
<polygon fill="#8dd3c7" stroke="#000000" points="280.4144,-122 277.4144,-126 256.4144,-126 253.4144,-122 139.5856,-122 139.5856,-86 280.4144,-86 280.4144,-122"/>
<text text-anchor="middle" x="210" y="-99.8" font-family="Times,serif" font-size="14.00" fill="#000000">MiscellaneousModule</text>
</g>
<!-- MiscellaneousModule&#45;&gt;PagesModule -->
<g id="edge9" class="edge">
<title>MiscellaneousModule&#45;&gt;PagesModule</title>
<path fill="none" stroke="#000000" d="M210,-122.1289C210,-142.5724 210,-173 210,-173 210,-173 625.8833,-173 625.8833,-173"/>
<polygon fill="#000000" stroke="#000000" points="625.8833,-176.5001 635.8833,-173 625.8832,-169.5001 625.8833,-176.5001"/>
</g>
<!-- SharedModule -->
<g id="node11" class="node">
<title>SharedModule</title>
<polygon fill="#8dd3c7" stroke="#000000" points="122.4231,-122 119.4231,-126 98.4231,-126 95.4231,-122 23.5769,-122 23.5769,-86 122.4231,-86 122.4231,-122"/>
<text text-anchor="middle" x="73" y="-99.8" font-family="Times,serif" font-size="14.00" fill="#000000">SharedModule</text>
</g>
<!-- SharedModule&#45;&gt;PagesModule -->
<g id="edge10" class="edge">
<title>SharedModule&#45;&gt;PagesModule</title>
<path fill="none" stroke="#000000" d="M73,-122.0109C73,-144.4852 73,-180 73,-180 73,-180 625.7262,-180 625.7262,-180"/>
<polygon fill="#000000" stroke="#000000" points="625.7262,-183.5001 635.7262,-180 625.7261,-176.5001 625.7262,-183.5001"/>
</g>
</g>
</svg>
