<?xml version="1.0" encoding="UTF-8" standalone="no"?>
<!DOCTYPE svg PUBLIC "-//W3C//DTD SVG 1.1//EN"
 "http://www.w3.org/Graphics/SVG/1.1/DTD/svg11.dtd">
<!-- Generated by graphviz version 2.40.1 (20161225.0304)
 -->
<!-- Title: dependencies Pages: 1 -->
<svg width="706pt" height="211pt"
 viewBox="0.00 0.00 706.00 211.00" xmlns="http://www.w3.org/2000/svg" xmlns:xlink="http://www.w3.org/1999/xlink">
<g id="graph0" class="graph" transform="scale(1 1) rotate(0) translate(4 207)">
<title>dependencies</title>
<polygon fill="#ffffff" stroke="transparent" points="-4,4 -4,-207 702,-207 702,4 -4,4"/>
<text text-anchor="start" x="328.0091" y="-42.4" font-family="sans-serif" font-weight="bold" font-size="14.00" fill="#000000">Legend</text>
<polygon fill="#ffffb3" stroke="transparent" points="115,-10 115,-30 135,-30 135,-10 115,-10"/>
<text text-anchor="start" x="138.629" y="-15.4" font-family="sans-serif" font-size="14.00" fill="#000000"> &#160;Declarations</text>
<polygon fill="#8dd3c7" stroke="transparent" points="228,-10 228,-30 248,-30 248,-10 228,-10"/>
<text text-anchor="start" x="251.7251" y="-15.4" font-family="sans-serif" font-size="14.00" fill="#000000"> &#160;Module</text>
<polygon fill="#80b1d3" stroke="transparent" points="314,-10 314,-30 334,-30 334,-10 314,-10"/>
<text text-anchor="start" x="337.7812" y="-15.4" font-family="sans-serif" font-size="14.00" fill="#000000"> &#160;Bootstrap</text>
<polygon fill="#fdb462" stroke="transparent" points="411,-10 411,-30 431,-30 431,-10 411,-10"/>
<text text-anchor="start" x="434.6732" y="-15.4" font-family="sans-serif" font-size="14.00" fill="#000000"> &#160;Providers</text>
<polygon fill="#fb8072" stroke="transparent" points="507,-10 507,-30 527,-30 527,-10 507,-10"/>
<text text-anchor="start" x="530.7258" y="-15.4" font-family="sans-serif" font-size="14.00" fill="#000000"> &#160;Exports</text>
<g id="clust1" class="cluster">
<title>cluster_ListViewModule</title>
<polygon fill="none" stroke="#000000" stroke-dasharray="1,5" points="8,-70 8,-195 690,-195 690,-70 8,-70"/>
</g>
<g id="clust2" class="cluster">
<title>cluster_ListViewModule_declarations</title>
<polygon fill="none" stroke="#000000" points="429,-78 429,-130 682,-130 682,-78 429,-78"/>
</g>
<g id="clust5" class="cluster">
<title>cluster_ListViewModule_imports</title>
<polygon fill="none" stroke="#000000" points="16,-78 16,-130 421,-130 421,-78 16,-78"/>
</g>
<!-- ListComponent -->
<g id="node1" class="node">
<title>ListComponent</title>
<polygon fill="#ffffb3" stroke="#000000" points="673.6109,-122 570.3891,-122 570.3891,-86 673.6109,-86 673.6109,-122"/>
<text text-anchor="middle" x="622" y="-99.8" font-family="Times,serif" font-size="14.00" fill="#000000">ListComponent</text>
</g>
<!-- ListViewModule -->
<g id="node3" class="node">
<title>ListViewModule</title>
<polygon fill="#8dd3c7" stroke="#000000" points="419.6472,-187 416.6472,-191 395.6472,-191 392.6472,-187 308.3528,-187 308.3528,-151 419.6472,-151 419.6472,-187"/>
<text text-anchor="middle" x="364" y="-164.8" font-family="Times,serif" font-size="14.00" fill="#000000">ListViewModule</text>
</g>
<!-- ListComponent&#45;&gt;ListViewModule -->
<g id="edge1" class="edge">
<title>ListComponent&#45;&gt;ListViewModule</title>
<path fill="none" stroke="#000000" d="M622,-122.2843C622,-143.3211 622,-175 622,-175 622,-175 429.6645,-175 429.6645,-175"/>
<polygon fill="#000000" stroke="#000000" points="429.6646,-171.5001 419.6645,-175 429.6645,-178.5001 429.6646,-171.5001"/>
</g>
<!-- DetailComponent -->
<g id="node2" class="node">
<title>DetailComponent</title>
<polygon fill="#ffffb3" stroke="#000000" points="552.5409,-122 437.4591,-122 437.4591,-86 552.5409,-86 552.5409,-122"/>
<text text-anchor="middle" x="495" y="-99.8" font-family="Times,serif" font-size="14.00" fill="#000000">DetailComponent</text>
</g>
<!-- DetailComponent&#45;&gt;ListViewModule -->
<g id="edge2" class="edge">
<title>DetailComponent&#45;&gt;ListViewModule</title>
<path fill="none" stroke="#000000" d="M495,-122.0225C495,-139.3734 495,-163 495,-163 495,-163 429.9358,-163 429.9358,-163"/>
<polygon fill="#000000" stroke="#000000" points="429.9358,-159.5001 419.9358,-163 429.9357,-166.5001 429.9358,-159.5001"/>
</g>
<!-- SharedModule -->
<g id="node4" class="node">
<title>SharedModule</title>
<polygon fill="#8dd3c7" stroke="#000000" points="413.4231,-122 410.4231,-126 389.4231,-126 386.4231,-122 314.5769,-122 314.5769,-86 413.4231,-86 413.4231,-122"/>
<text text-anchor="middle" x="364" y="-99.8" font-family="Times,serif" font-size="14.00" fill="#000000">SharedModule</text>
</g>
<!-- SharedModule&#45;&gt;ListViewModule -->
<g id="edge3" class="edge">
<title>SharedModule&#45;&gt;ListViewModule</title>
<path fill="none" stroke="#000000" d="M364,-122.1061C364,-122.1061 364,-140.991 364,-140.991"/>
<polygon fill="#000000" stroke="#000000" points="360.5001,-140.9909 364,-150.991 367.5001,-140.991 360.5001,-140.9909"/>
</g>
<!-- ThemeModule -->
<g id="node5" class="node">
<title>ThemeModule</title>
<polygon fill="#8dd3c7" stroke="#000000" points="297.4231,-122 294.4231,-126 273.4231,-126 270.4231,-122 198.5769,-122 198.5769,-86 297.4231,-86 297.4231,-122"/>
<text text-anchor="middle" x="248" y="-99.8" font-family="Times,serif" font-size="14.00" fill="#000000">ThemeModule</text>
</g>
<!-- ThemeModule&#45;&gt;ListViewModule -->
<g id="edge4" class="edge">
<title>ThemeModule&#45;&gt;ListViewModule</title>
<path fill="none" stroke="#000000" d="M248,-122.0225C248,-139.3734 248,-163 248,-163 248,-163 298.0387,-163 298.0387,-163"/>
<polygon fill="#000000" stroke="#000000" points="298.0387,-166.5001 308.0387,-163 298.0387,-159.5001 298.0387,-166.5001"/>
</g>
<!-- ListViewRoutingModule -->
<g id="node6" class="node">
<title>ListViewRoutingModule</title>
<polygon fill="#8dd3c7" stroke="#000000" points="180.2646,-122 177.2646,-126 156.2646,-126 153.2646,-122 23.7354,-122 23.7354,-86 180.2646,-86 180.2646,-122"/>
<text text-anchor="middle" x="102" y="-99.8" font-family="Times,serif" font-size="14.00" fill="#000000">ListViewRoutingModule</text>
</g>
<!-- ListViewRoutingModule&#45;&gt;ListViewModule -->
<g id="edge5" class="edge">
<title>ListViewRoutingModule&#45;&gt;ListViewModule</title>
<path fill="none" stroke="#000000" d="M102,-122.2843C102,-143.3211 102,-175 102,-175 102,-175 298.1158,-175 298.1158,-175"/>
<polygon fill="#000000" stroke="#000000" points="298.1158,-178.5001 308.1158,-175 298.1158,-171.5001 298.1158,-178.5001"/>
</g>
</g>
</svg>
