<?xml version="1.0" encoding="UTF-8" standalone="no"?>
<!DOCTYPE svg PUBLIC "-//W3C//DTD SVG 1.1//EN"
 "http://www.w3.org/Graphics/SVG/1.1/DTD/svg11.dtd">
<!-- Generated by graphviz version 2.40.1 (20161225.0304)
 -->
<!-- Title: dependencies Pages: 1 -->
<svg width="972pt" height="211pt"
 viewBox="0.00 0.00 972.00 211.00" xmlns="http://www.w3.org/2000/svg" xmlns:xlink="http://www.w3.org/1999/xlink">
<g id="graph0" class="graph" transform="scale(1 1) rotate(0) translate(4 207)">
<title>dependencies</title>
<polygon fill="#ffffff" stroke="transparent" points="-4,4 -4,-207 968,-207 968,4 -4,4"/>
<text text-anchor="start" x="461.0091" y="-42.4" font-family="sans-serif" font-weight="bold" font-size="14.00" fill="#000000">Legend</text>
<polygon fill="#ffffb3" stroke="transparent" points="248,-10 248,-30 268,-30 268,-10 248,-10"/>
<text text-anchor="start" x="271.629" y="-15.4" font-family="sans-serif" font-size="14.00" fill="#000000"> &#160;Declarations</text>
<polygon fill="#8dd3c7" stroke="transparent" points="361,-10 361,-30 381,-30 381,-10 361,-10"/>
<text text-anchor="start" x="384.7251" y="-15.4" font-family="sans-serif" font-size="14.00" fill="#000000"> &#160;Module</text>
<polygon fill="#80b1d3" stroke="transparent" points="447,-10 447,-30 467,-30 467,-10 447,-10"/>
<text text-anchor="start" x="470.7812" y="-15.4" font-family="sans-serif" font-size="14.00" fill="#000000"> &#160;Bootstrap</text>
<polygon fill="#fdb462" stroke="transparent" points="544,-10 544,-30 564,-30 564,-10 544,-10"/>
<text text-anchor="start" x="567.6732" y="-15.4" font-family="sans-serif" font-size="14.00" fill="#000000"> &#160;Providers</text>
<polygon fill="#fb8072" stroke="transparent" points="640,-10 640,-30 660,-30 660,-10 640,-10"/>
<text text-anchor="start" x="663.7258" y="-15.4" font-family="sans-serif" font-size="14.00" fill="#000000"> &#160;Exports</text>
<g id="clust1" class="cluster">
<title>cluster_LandingModule</title>
<polygon fill="none" stroke="#000000" stroke-dasharray="1,5" points="8,-70 8,-195 956,-195 956,-70 8,-70"/>
</g>
<g id="clust2" class="cluster">
<title>cluster_LandingModule_declarations</title>
<polygon fill="none" stroke="#000000" points="308,-78 308,-130 948,-130 948,-78 308,-78"/>
</g>
<g id="clust7" class="cluster">
<title>cluster_LandingModule_imports</title>
<polygon fill="none" stroke="#000000" points="16,-78 16,-130 300,-130 300,-78 16,-78"/>
</g>
<!-- LandingComponent -->
<g id="node1" class="node">
<title>LandingComponent</title>
<polygon fill="#ffffb3" stroke="#000000" points="939.9902,-122 812.0098,-122 812.0098,-86 939.9902,-86 939.9902,-122"/>
<text text-anchor="middle" x="876" y="-99.8" font-family="Times,serif" font-size="14.00" fill="#000000">LandingComponent</text>
</g>
<!-- LandingModule -->
<g id="node5" class="node">
<title>LandingModule</title>
<polygon fill="#8dd3c7" stroke="#000000" points="541.2078,-187 538.2078,-191 517.2078,-191 514.2078,-187 434.7922,-187 434.7922,-151 541.2078,-151 541.2078,-187"/>
<text text-anchor="middle" x="488" y="-164.8" font-family="Times,serif" font-size="14.00" fill="#000000">LandingModule</text>
</g>
<!-- LandingComponent&#45;&gt;LandingModule -->
<g id="edge1" class="edge">
<title>LandingComponent&#45;&gt;LandingModule</title>
<path fill="none" stroke="#000000" d="M876,-122.2843C876,-143.3211 876,-175 876,-175 876,-175 551.1362,-175 551.1362,-175"/>
<polygon fill="#000000" stroke="#000000" points="551.1362,-171.5001 541.1362,-175 551.1362,-178.5001 551.1362,-171.5001"/>
</g>
<!-- LoginComponent -->
<g id="node2" class="node">
<title>LoginComponent</title>
<polygon fill="#ffffb3" stroke="#000000" points="794.2758,-122 679.7242,-122 679.7242,-86 794.2758,-86 794.2758,-122"/>
<text text-anchor="middle" x="737" y="-99.8" font-family="Times,serif" font-size="14.00" fill="#000000">LoginComponent</text>
</g>
<!-- LoginComponent&#45;&gt;LandingModule -->
<g id="edge2" class="edge">
<title>LoginComponent&#45;&gt;LandingModule</title>
<path fill="none" stroke="#000000" d="M737,-122.0225C737,-139.3734 737,-163 737,-163 737,-163 551.1113,-163 551.1113,-163"/>
<polygon fill="#000000" stroke="#000000" points="551.1114,-159.5001 541.1113,-163 551.1113,-166.5001 551.1114,-159.5001"/>
</g>
<!-- RegisterDialogComponent -->
<g id="node3" class="node">
<title>RegisterDialogComponent</title>
<polygon fill="#ffffb3" stroke="#000000" points="662.087,-122 495.913,-122 495.913,-86 662.087,-86 662.087,-122"/>
<text text-anchor="middle" x="579" y="-99.8" font-family="Times,serif" font-size="14.00" fill="#000000">RegisterDialogComponent</text>
</g>
<!-- RegisterDialogComponent&#45;&gt;LandingModule -->
<g id="edge3" class="edge">
<title>RegisterDialogComponent&#45;&gt;LandingModule</title>
<path fill="none" stroke="#000000" d="M518.5302,-122.1061C518.5302,-122.1061 518.5302,-140.991 518.5302,-140.991"/>
<polygon fill="#000000" stroke="#000000" points="515.0302,-140.9909 518.5302,-150.991 522.0302,-140.991 515.0302,-140.9909"/>
</g>
<!-- ProcessDialogComponent -->
<g id="node4" class="node">
<title>ProcessDialogComponent</title>
<polygon fill="#ffffb3" stroke="#000000" points="478.1965,-122 315.8035,-122 315.8035,-86 478.1965,-86 478.1965,-122"/>
<text text-anchor="middle" x="397" y="-99.8" font-family="Times,serif" font-size="14.00" fill="#000000">ProcessDialogComponent</text>
</g>
<!-- ProcessDialogComponent&#45;&gt;LandingModule -->
<g id="edge4" class="edge">
<title>ProcessDialogComponent&#45;&gt;LandingModule</title>
<path fill="none" stroke="#000000" d="M456.4972,-122.1061C456.4972,-122.1061 456.4972,-140.991 456.4972,-140.991"/>
<polygon fill="#000000" stroke="#000000" points="452.9973,-140.9909 456.4972,-150.991 459.9973,-140.991 452.9973,-140.9909"/>
</g>
<!-- LandingRoutingModule -->
<g id="node6" class="node">
<title>LandingRoutingModule</title>
<polygon fill="#8dd3c7" stroke="#000000" points="291.8258,-122 288.8258,-126 267.8258,-126 264.8258,-122 140.1742,-122 140.1742,-86 291.8258,-86 291.8258,-122"/>
<text text-anchor="middle" x="216" y="-99.8" font-family="Times,serif" font-size="14.00" fill="#000000">LandingRoutingModule</text>
</g>
<!-- LandingRoutingModule&#45;&gt;LandingModule -->
<g id="edge5" class="edge">
<title>LandingRoutingModule&#45;&gt;LandingModule</title>
<path fill="none" stroke="#000000" d="M216,-122.0225C216,-139.3734 216,-163 216,-163 216,-163 424.5861,-163 424.5861,-163"/>
<polygon fill="#000000" stroke="#000000" points="424.5861,-166.5001 434.5861,-163 424.5861,-159.5001 424.5861,-166.5001"/>
</g>
<!-- SharedModule -->
<g id="node7" class="node">
<title>SharedModule</title>
<polygon fill="#8dd3c7" stroke="#000000" points="122.4231,-122 119.4231,-126 98.4231,-126 95.4231,-122 23.5769,-122 23.5769,-86 122.4231,-86 122.4231,-122"/>
<text text-anchor="middle" x="73" y="-99.8" font-family="Times,serif" font-size="14.00" fill="#000000">SharedModule</text>
</g>
<!-- SharedModule&#45;&gt;LandingModule -->
<g id="edge6" class="edge">
<title>SharedModule&#45;&gt;LandingModule</title>
<path fill="none" stroke="#000000" d="M73,-122.2843C73,-143.3211 73,-175 73,-175 73,-175 424.5956,-175 424.5956,-175"/>
<polygon fill="#000000" stroke="#000000" points="424.5956,-178.5001 434.5956,-175 424.5956,-171.5001 424.5956,-178.5001"/>
</g>
</g>
</svg>
