<?xml version="1.0" encoding="UTF-8" standalone="no"?>
<!DOCTYPE svg PUBLIC "-//W3C//DTD SVG 1.1//EN"
 "http://www.w3.org/Graphics/SVG/1.1/DTD/svg11.dtd">
<!-- Generated by graphviz version 2.40.1 (20161225.0304)
 -->
<!-- Title: dependencies Pages: 1 -->
<svg width="2637pt" height="211pt"
 viewBox="0.00 0.00 2637.00 211.00" xmlns="http://www.w3.org/2000/svg" xmlns:xlink="http://www.w3.org/1999/xlink">
<g id="graph0" class="graph" transform="scale(1 1) rotate(0) translate(4 207)">
<title>dependencies</title>
<polygon fill="#ffffff" stroke="transparent" points="-4,4 -4,-207 2633,-207 2633,4 -4,4"/>
<text text-anchor="start" x="1293.5091" y="-42.4" font-family="sans-serif" font-weight="bold" font-size="14.00" fill="#000000">Legend</text>
<polygon fill="#ffffb3" stroke="transparent" points="1080.5,-10 1080.5,-30 1100.5,-30 1100.5,-10 1080.5,-10"/>
<text text-anchor="start" x="1104.129" y="-15.4" font-family="sans-serif" font-size="14.00" fill="#000000"> &#160;Declarations</text>
<polygon fill="#8dd3c7" stroke="transparent" points="1193.5,-10 1193.5,-30 1213.5,-30 1213.5,-10 1193.5,-10"/>
<text text-anchor="start" x="1217.2251" y="-15.4" font-family="sans-serif" font-size="14.00" fill="#000000"> &#160;Module</text>
<polygon fill="#80b1d3" stroke="transparent" points="1279.5,-10 1279.5,-30 1299.5,-30 1299.5,-10 1279.5,-10"/>
<text text-anchor="start" x="1303.2812" y="-15.4" font-family="sans-serif" font-size="14.00" fill="#000000"> &#160;Bootstrap</text>
<polygon fill="#fdb462" stroke="transparent" points="1376.5,-10 1376.5,-30 1396.5,-30 1396.5,-10 1376.5,-10"/>
<text text-anchor="start" x="1400.1732" y="-15.4" font-family="sans-serif" font-size="14.00" fill="#000000"> &#160;Providers</text>
<polygon fill="#fb8072" stroke="transparent" points="1472.5,-10 1472.5,-30 1492.5,-30 1492.5,-10 1472.5,-10"/>
<text text-anchor="start" x="1496.2258" y="-15.4" font-family="sans-serif" font-size="14.00" fill="#000000"> &#160;Exports</text>
<g id="clust1" class="cluster">
<title>cluster_ApiModule</title>
<polygon fill="none" stroke="#000000" stroke-dasharray="1,5" points="8,-70 8,-195 2621,-195 2621,-70 8,-70"/>
</g>
<g id="clust6" class="cluster">
<title>cluster_ApiModule_providers</title>
<polygon fill="none" stroke="#000000" points="16,-78 16,-130 2613,-130 2613,-78 16,-78"/>
</g>
<!-- AgentControllerService -->
<g id="node1" class="node">
<title>AgentControllerService</title>
<ellipse fill="#fdb462" stroke="#000000" cx="2502" cy="-104" rx="103.0675" ry="18"/>
<text text-anchor="middle" x="2502" y="-99.8" font-family="Times,serif" font-size="14.00" fill="#000000">AgentControllerService</text>
</g>
<!-- ApiModule -->
<g id="node12" class="node">
<title>ApiModule</title>
<polygon fill="#8dd3c7" stroke="#000000" points="1364.0483,-187 1361.0483,-191 1340.0483,-191 1337.0483,-187 1283.9517,-187 1283.9517,-151 1364.0483,-151 1364.0483,-187"/>
<text text-anchor="middle" x="1324" y="-164.8" font-family="Times,serif" font-size="14.00" fill="#000000">ApiModule</text>
</g>
<!-- AgentControllerService&#45;&gt;ApiModule -->
<g id="edge1" class="edge">
<title>AgentControllerService&#45;&gt;ApiModule</title>
<path fill="none" stroke="#000000" d="M2502,-122.0908C2502,-145.1328 2502,-182 2502,-182 2502,-182 1374.2086,-182 1374.2086,-182"/>
<polygon fill="#000000" stroke="#000000" points="1374.2087,-178.5001 1364.2086,-182 1374.2086,-185.5001 1374.2087,-178.5001"/>
</g>
<!-- CertificateControllerService -->
<g id="node2" class="node">
<title>CertificateControllerService</title>
<ellipse fill="#fdb462" stroke="#000000" cx="2260" cy="-104" rx="120.3724" ry="18"/>
<text text-anchor="middle" x="2260" y="-99.8" font-family="Times,serif" font-size="14.00" fill="#000000">CertificateControllerService</text>
</g>
<!-- CertificateControllerService&#45;&gt;ApiModule -->
<g id="edge2" class="edge">
<title>CertificateControllerService&#45;&gt;ApiModule</title>
<path fill="none" stroke="#000000" d="M2260,-122.2843C2260,-143.3211 2260,-175 2260,-175 2260,-175 1374.2188,-175 1374.2188,-175"/>
<polygon fill="#000000" stroke="#000000" points="1374.2188,-171.5001 1364.2188,-175 1374.2187,-178.5001 1374.2188,-171.5001"/>
</g>
<!-- DeviceControllerService -->
<g id="node3" class="node">
<title>DeviceControllerService</title>
<ellipse fill="#fdb462" stroke="#000000" cx="2015" cy="-104" rx="107.0569" ry="18"/>
<text text-anchor="middle" x="2015" y="-99.8" font-family="Times,serif" font-size="14.00" fill="#000000">DeviceControllerService</text>
</g>
<!-- DeviceControllerService&#45;&gt;ApiModule -->
<g id="edge3" class="edge">
<title>DeviceControllerService&#45;&gt;ApiModule</title>
<path fill="none" stroke="#000000" d="M2015,-122.1061C2015,-141.3391 2015,-169 2015,-169 2015,-169 1374.1378,-169 1374.1378,-169"/>
<polygon fill="#000000" stroke="#000000" points="1374.1379,-165.5001 1364.1378,-169 1374.1378,-172.5001 1374.1379,-165.5001"/>
</g>
<!-- LogoControllerService -->
<g id="node4" class="node">
<title>LogoControllerService</title>
<ellipse fill="#fdb462" stroke="#000000" cx="1790" cy="-104" rx="100.1394" ry="18"/>
<text text-anchor="middle" x="1790" y="-99.8" font-family="Times,serif" font-size="14.00" fill="#000000">LogoControllerService</text>
</g>
<!-- LogoControllerService&#45;&gt;ApiModule -->
<g id="edge4" class="edge">
<title>LogoControllerService&#45;&gt;ApiModule</title>
<path fill="none" stroke="#000000" d="M1790,-122.0225C1790,-139.3734 1790,-163 1790,-163 1790,-163 1374.1342,-163 1374.1342,-163"/>
<polygon fill="#000000" stroke="#000000" points="1374.1343,-159.5001 1364.1342,-163 1374.1342,-166.5001 1374.1343,-159.5001"/>
</g>
<!-- MmsControllerService -->
<g id="node5" class="node">
<title>MmsControllerService</title>
<ellipse fill="#fdb462" stroke="#000000" cx="1572" cy="-104" rx="99.5732" ry="18"/>
<text text-anchor="middle" x="1572" y="-99.8" font-family="Times,serif" font-size="14.00" fill="#000000">MmsControllerService</text>
</g>
<!-- MmsControllerService&#45;&gt;ApiModule -->
<g id="edge5" class="edge">
<title>MmsControllerService&#45;&gt;ApiModule</title>
<path fill="none" stroke="#000000" d="M1572,-122.2396C1572,-137.5706 1572,-157 1572,-157 1572,-157 1374.1211,-157 1374.1211,-157"/>
<polygon fill="#000000" stroke="#000000" points="1374.1212,-153.5001 1364.1211,-157 1374.1211,-160.5001 1374.1212,-153.5001"/>
</g>
<!-- OrganizationControllerService -->
<g id="node6" class="node">
<title>OrganizationControllerService</title>
<ellipse fill="#fdb462" stroke="#000000" cx="1324" cy="-104" rx="130.1921" ry="18"/>
<text text-anchor="middle" x="1324" y="-99.8" font-family="Times,serif" font-size="14.00" fill="#000000">OrganizationControllerService</text>
</g>
<!-- OrganizationControllerService&#45;&gt;ApiModule -->
<g id="edge6" class="edge">
<title>OrganizationControllerService&#45;&gt;ApiModule</title>
<path fill="none" stroke="#000000" d="M1324,-122.1061C1324,-122.1061 1324,-140.991 1324,-140.991"/>
<polygon fill="#000000" stroke="#000000" points="1320.5001,-140.9909 1324,-150.991 1327.5001,-140.991 1320.5001,-140.9909"/>
</g>
<!-- RoleControllerService -->
<g id="node7" class="node">
<title>RoleControllerService</title>
<ellipse fill="#fdb462" stroke="#000000" cx="1078" cy="-104" rx="97.8479" ry="18"/>
<text text-anchor="middle" x="1078" y="-99.8" font-family="Times,serif" font-size="14.00" fill="#000000">RoleControllerService</text>
</g>
<!-- RoleControllerService&#45;&gt;ApiModule -->
<g id="edge7" class="edge">
<title>RoleControllerService&#45;&gt;ApiModule</title>
<path fill="none" stroke="#000000" d="M1078,-122.2396C1078,-137.5706 1078,-157 1078,-157 1078,-157 1273.9283,-157 1273.9283,-157"/>
<polygon fill="#000000" stroke="#000000" points="1273.9284,-160.5001 1283.9283,-157 1273.9283,-153.5001 1273.9284,-160.5001"/>
</g>
<!-- ServiceControllerService -->
<g id="node8" class="node">
<title>ServiceControllerService</title>
<ellipse fill="#fdb462" stroke="#000000" cx="853" cy="-104" rx="108.7806" ry="18"/>
<text text-anchor="middle" x="853" y="-99.8" font-family="Times,serif" font-size="14.00" fill="#000000">ServiceControllerService</text>
</g>
<!-- ServiceControllerService&#45;&gt;ApiModule -->
<g id="edge8" class="edge">
<title>ServiceControllerService&#45;&gt;ApiModule</title>
<path fill="none" stroke="#000000" d="M853,-122.0225C853,-139.3734 853,-163 853,-163 853,-163 1273.8428,-163 1273.8428,-163"/>
<polygon fill="#000000" stroke="#000000" points="1273.8428,-166.5001 1283.8428,-163 1273.8428,-159.5001 1273.8428,-166.5001"/>
</g>
<!-- UserControllerService -->
<g id="node9" class="node">
<title>UserControllerService</title>
<ellipse fill="#fdb462" stroke="#000000" cx="628" cy="-104" rx="97.8266" ry="18"/>
<text text-anchor="middle" x="628" y="-99.8" font-family="Times,serif" font-size="14.00" fill="#000000">UserControllerService</text>
</g>
<!-- UserControllerService&#45;&gt;ApiModule -->
<g id="edge9" class="edge">
<title>UserControllerService&#45;&gt;ApiModule</title>
<path fill="none" stroke="#000000" d="M628,-122.1061C628,-141.3391 628,-169 628,-169 628,-169 1273.8263,-169 1273.8263,-169"/>
<polygon fill="#000000" stroke="#000000" points="1273.8264,-172.5001 1283.8263,-169 1273.8263,-165.5001 1273.8264,-172.5001"/>
</g>
<!-- VesselControllerService -->
<g id="node10" class="node">
<title>VesselControllerService</title>
<ellipse fill="#fdb462" stroke="#000000" cx="407" cy="-104" rx="105.349" ry="18"/>
<text text-anchor="middle" x="407" y="-99.8" font-family="Times,serif" font-size="14.00" fill="#000000">VesselControllerService</text>
</g>
<!-- VesselControllerService&#45;&gt;ApiModule -->
<g id="edge10" class="edge">
<title>VesselControllerService&#45;&gt;ApiModule</title>
<path fill="none" stroke="#000000" d="M407,-122.2843C407,-143.3211 407,-175 407,-175 407,-175 1273.7117,-175 1273.7117,-175"/>
<polygon fill="#000000" stroke="#000000" points="1273.7118,-178.5001 1283.7117,-175 1273.7117,-171.5001 1273.7118,-178.5001"/>
</g>
<!-- VesselImageControllerService -->
<g id="node11" class="node">
<title>VesselImageControllerService</title>
<ellipse fill="#fdb462" stroke="#000000" cx="154" cy="-104" rx="129.6066" ry="18"/>
<text text-anchor="middle" x="154" y="-99.8" font-family="Times,serif" font-size="14.00" fill="#000000">VesselImageControllerService</text>
</g>
<!-- VesselImageControllerService&#45;&gt;ApiModule -->
<g id="edge11" class="edge">
<title>VesselImageControllerService&#45;&gt;ApiModule</title>
<path fill="none" stroke="#000000" d="M154,-122.0908C154,-145.1328 154,-182 154,-182 154,-182 1273.726,-182 1273.726,-182"/>
<polygon fill="#000000" stroke="#000000" points="1273.726,-185.5001 1283.726,-182 1273.7259,-178.5001 1273.726,-185.5001"/>
</g>
</g>
</svg>
